<svg xmlns="http://www.w3.org/2000/svg" viewBox="0 0 100 100">
  <!-- Plantes japonaises : des fleurs de cerisier grises dans les quatre coins de la photo. -->
  <defs><filter id="s" x="-20%" y="-20%" width="140%" height="140%"><feDropShadow dx="0" dy="0.4" stdDeviation="0.5" flood-color="#000" flood-opacity="0.35"/></filter></defs>
  <g filter="url(#s)">
  <ellipse class="p p0" cx="35.20" cy="33.32" rx="1.2" ry="0.8" fill="#bdbdbd" style="transform-origin:35.20px 33.32px"/><ellipse class="p p1" cx="72.88" cy="22.58" rx="1.2" ry="0.8" fill="#d3d3d3" style="transform-origin:72.88px 22.58px"/><ellipse class="p p2" cx="64.10" cy="75.88" rx="1.2" ry="0.8" fill="#d3d3d3" style="transform-origin:64.10px 75.88px"/><ellipse class="p p0" cx="30.57" cy="81.91" rx="1.2" ry="0.8" fill="#bdbdbd" style="transform-origin:30.57px 81.91px"/><ellipse class="p p1" cx="35.52" cy="26.74" rx="1.2" ry="0.8" fill="#d3d3d3" style="transform-origin:35.52px 26.74px"/><ellipse class="p p2" cx="66.89" cy="20.28" rx="1.2" ry="0.8" fill="#bdbdbd" style="transform-origin:66.89px 20.28px"/>
  <g class="c c0" style="transform-origin:0px 0px"><path d="M0 0 Q 16.00 5.00 30.00 18.00" fill="none" stroke="#c4c4c4" stroke-width="1.1" stroke-linecap="round"/><path d="M0 0 Q 5.10 -3.06 10.20 0 Q 5.10 3.06 0 0 Z" transform="translate(8.00 6.57) rotate(-44.66)" fill="#d3d3d3" stroke="#bdbdbd" stroke-width="0.3"/><path d="M0 0 Q 4.35 -2.61 8.69 0 Q 4.35 2.61 0 0 Z" transform="translate(20.72 17.59) rotate(-46.83)" fill="#d3d3d3" stroke="#bdbdbd" stroke-width="0.3"/><path d="M0 0 Q 4.40 -2.64 8.81 0 Q 4.40 2.64 0 0 Z" transform="translate(9.82 9.77) rotate(20.97)" fill="#d3d3d3" stroke="#bdbdbd" stroke-width="0.3"/><path d="M0 0 Q 4.46 -2.68 8.92 0 Q 4.46 2.68 0 0 Z" transform="translate(15.66 8.36) rotate(32.08)" fill="#d3d3d3" stroke="#bdbdbd" stroke-width="0.3"/><g transform="translate(3.37 3.17) rotate(54.53)"><path d="M0 0 C -3.73 -2.38 -3.39 -6.45 0 -6.79 C 3.39 -6.45 3.73 -2.38 0 0 Z" transform="rotate(0)" fill="#ececec" stroke="#b9b9b9" stroke-width="0.4"/><path d="M0 0 C -3.73 -2.38 -3.39 -6.45 0 -6.79 C 3.39 -6.45 3.73 -2.38 0 0 Z" transform="rotate(72)" fill="#ececec" stroke="#b9b9b9" stroke-width="0.4"/><path d="M0 0 C -3.73 -2.38 -3.39 -6.45 0 -6.79 C 3.39 -6.45 3.73 -2.38 0 0 Z" transform="rotate(144)" fill="#ececec" stroke="#b9b9b9" stroke-width="0.4"/><path d="M0 0 C -3.73 -2.38 -3.39 -6.45 0 -6.79 C 3.39 -6.45 3.73 -2.38 0 0 Z" transform="rotate(216)" fill="#ececec" stroke="#b9b9b9" stroke-width="0.4"/><path d="M0 0 C -3.73 -2.38 -3.39 -6.45 0 -6.79 C 3.39 -6.45 3.73 -2.38 0 0 Z" transform="rotate(288)" fill="#ececec" stroke="#b9b9b9" stroke-width="0.4"/><circle r="1.36" fill="#bdbdbd"/><circle cx="1.87" cy="1.36" r="0.48" fill="#9e9e9e"/><circle cx="-0.71" cy="2.19" r="0.48" fill="#9e9e9e"/><circle cx="-2.31" cy="0.00" r="0.48" fill="#9e9e9e"/><circle cx="-0.71" cy="-2.19" r="0.48" fill="#9e9e9e"/><circle cx="1.87" cy="-1.36" r="0.48" fill="#9e9e9e"/></g><g transform="translate(8.51 6.33) rotate(53.45)"><path d="M0 0 C -3.76 -2.39 -3.42 -6.50 0 -6.84 C 3.42 -6.50 3.76 -2.39 0 0 Z" transform="rotate(0)" fill="#e3e3e3" stroke="#b9b9b9" stroke-width="0.4"/><path d="M0 0 C -3.76 -2.39 -3.42 -6.50 0 -6.84 C 3.42 -6.50 3.76 -2.39 0 0 Z" transform="rotate(72)" fill="#e3e3e3" stroke="#b9b9b9" stroke-width="0.4"/><path d="M0 0 C -3.76 -2.39 -3.42 -6.50 0 -6.84 C 3.42 -6.50 3.76 -2.39 0 0 Z" transform="rotate(144)" fill="#e3e3e3" stroke="#b9b9b9" stroke-width="0.4"/><path d="M0 0 C -3.76 -2.39 -3.42 -6.50 0 -6.84 C 3.42 -6.50 3.76 -2.39 0 0 Z" transform="rotate(216)" fill="#e3e3e3" stroke="#b9b9b9" stroke-width="0.4"/><path d="M0 0 C -3.76 -2.39 -3.42 -6.50 0 -6.84 C 3.42 -6.50 3.76 -2.39 0 0 Z" transform="rotate(288)" fill="#e3e3e3" stroke="#b9b9b9" stroke-width="0.4"/><circle r="1.37" fill="#bdbdbd"/><circle cx="1.88" cy="1.37" r="0.48" fill="#9e9e9e"/><circle cx="-0.72" cy="2.21" r="0.48" fill="#9e9e9e"/><circle cx="-2.33" cy="0.00" r="0.48" fill="#9e9e9e"/><circle cx="-0.72" cy="-2.21" r="0.48" fill="#9e9e9e"/><circle cx="1.88" cy="-1.37" r="0.48" fill="#9e9e9e"/></g><g transform="translate(11.01 23.18) rotate(13.89)"><path d="M0 0 C -3.12 -1.99 -2.84 -5.40 0 -5.68 C 2.84 -5.40 3.12 -1.99 0 0 Z" transform="rotate(0)" fill="#e3e3e3" stroke="#b9b9b9" stroke-width="0.4"/><path d="M0 0 C -3.12 -1.99 -2.84 -5.40 0 -5.68 C 2.84 -5.40 3.12 -1.99 0 0 Z" transform="rotate(72)" fill="#e3e3e3" stroke="#b9b9b9" stroke-width="0.4"/><path d="M0 0 C -3.12 -1.99 -2.84 -5.40 0 -5.68 C 2.84 -5.40 3.12 -1.99 0 0 Z" transform="rotate(144)" fill="#e3e3e3" stroke="#b9b9b9" stroke-width="0.4"/><path d="M0 0 C -3.12 -1.99 -2.84 -5.40 0 -5.68 C 2.84 -5.40 3.12 -1.99 0 0 Z" transform="rotate(216)" fill="#e3e3e3" stroke="#b9b9b9" stroke-width="0.4"/><path d="M0 0 C -3.12 -1.99 -2.84 -5.40 0 -5.68 C 2.84 -5.40 3.12 -1.99 0 0 Z" transform="rotate(288)" fill="#e3e3e3" stroke="#b9b9b9" stroke-width="0.4"/><circle r="1.14" fill="#bdbdbd"/><circle cx="1.56" cy="1.14" r="0.40" fill="#9e9e9e"/><circle cx="-0.60" cy="1.84" r="0.40" fill="#9e9e9e"/><circle cx="-1.93" cy="0.00" r="0.40" fill="#9e9e9e"/><circle cx="-0.60" cy="-1.84" r="0.40" fill="#9e9e9e"/><circle cx="1.56" cy="-1.14" r="0.40" fill="#9e9e9e"/></g><g transform="translate(9.37 7.85) rotate(68.70)"><path d="M0 0 C -3.78 -2.41 -3.44 -6.53 0 -6.87 C 3.44 -6.53 3.78 -2.41 0 0 Z" transform="rotate(0)" fill="#e3e3e3" stroke="#b9b9b9" stroke-width="0.4"/><path d="M0 0 C -3.78 -2.41 -3.44 -6.53 0 -6.87 C 3.44 -6.53 3.78 -2.41 0 0 Z" transform="rotate(72)" fill="#e3e3e3" stroke="#b9b9b9" stroke-width="0.4"/><path d="M0 0 C -3.78 -2.41 -3.44 -6.53 0 -6.87 C 3.44 -6.53 3.78 -2.41 0 0 Z" transform="rotate(144)" fill="#e3e3e3" stroke="#b9b9b9" stroke-width="0.4"/><path d="M0 0 C -3.78 -2.41 -3.44 -6.53 0 -6.87 C 3.44 -6.53 3.78 -2.41 0 0 Z" transform="rotate(216)" fill="#e3e3e3" stroke="#b9b9b9" stroke-width="0.4"/><path d="M0 0 C -3.78 -2.41 -3.44 -6.53 0 -6.87 C 3.44 -6.53 3.78 -2.41 0 0 Z" transform="rotate(288)" fill="#e3e3e3" stroke="#b9b9b9" stroke-width="0.4"/><circle r="1.37" fill="#bdbdbd"/><circle cx="1.89" cy="1.37" r="0.48" fill="#9e9e9e"/><circle cx="-0.72" cy="2.22" r="0.48" fill="#9e9e9e"/><circle cx="-2.34" cy="0.00" r="0.48" fill="#9e9e9e"/><circle cx="-0.72" cy="-2.22" r="0.48" fill="#9e9e9e"/><circle cx="1.89" cy="-1.37" r="0.48" fill="#9e9e9e"/></g><g transform="translate(4.65 22.83) rotate(16.08)"><path d="M0 0 C -3.08 -1.96 -2.80 -5.31 0 -5.59 C 2.80 -5.31 3.08 -1.96 0 0 Z" transform="rotate(0)" fill="#e3e3e3" stroke="#b9b9b9" stroke-width="0.4"/><path d="M0 0 C -3.08 -1.96 -2.80 -5.31 0 -5.59 C 2.80 -5.31 3.08 -1.96 0 0 Z" transform="rotate(72)" fill="#e3e3e3" stroke="#b9b9b9" stroke-width="0.4"/><path d="M0 0 C -3.08 -1.96 -2.80 -5.31 0 -5.59 C 2.80 -5.31 3.08 -1.96 0 0 Z" transform="rotate(144)" fill="#e3e3e3" stroke="#b9b9b9" stroke-width="0.4"/><path d="M0 0 C -3.08 -1.96 -2.80 -5.31 0 -5.59 C 2.80 -5.31 3.08 -1.96 0 0 Z" transform="rotate(216)" fill="#e3e3e3" stroke="#b9b9b9" stroke-width="0.4"/><path d="M0 0 C -3.08 -1.96 -2.80 -5.31 0 -5.59 C 2.80 -5.31 3.08 -1.96 0 0 Z" transform="rotate(288)" fill="#e3e3e3" stroke="#b9b9b9" stroke-width="0.4"/><circle r="1.12" fill="#bdbdbd"/><circle cx="1.54" cy="1.12" r="0.39" fill="#9e9e9e"/><circle cx="-0.59" cy="1.81" r="0.39" fill="#9e9e9e"/><circle cx="-1.90" cy="0.00" r="0.39" fill="#9e9e9e"/><circle cx="-0.59" cy="-1.81" r="0.39" fill="#9e9e9e"/><circle cx="1.54" cy="-1.12" r="0.39" fill="#9e9e9e"/></g><g transform="translate(6.43 14.33) rotate(47.10)"><path d="M0 0 C -4.28 -2.72 -3.89 -7.39 0 -7.78 C 3.89 -7.39 4.28 -2.72 0 0 Z" transform="rotate(0)" fill="#e3e3e3" stroke="#b9b9b9" stroke-width="0.4"/><path d="M0 0 C -4.28 -2.72 -3.89 -7.39 0 -7.78 C 3.89 -7.39 4.28 -2.72 0 0 Z" transform="rotate(72)" fill="#e3e3e3" stroke="#b9b9b9" stroke-width="0.4"/><path d="M0 0 C -4.28 -2.72 -3.89 -7.39 0 -7.78 C 3.89 -7.39 4.28 -2.72 0 0 Z" transform="rotate(144)" fill="#e3e3e3" stroke="#b9b9b9" stroke-width="0.4"/><path d="M0 0 C -4.28 -2.72 -3.89 -7.39 0 -7.78 C 3.89 -7.39 4.28 -2.72 0 0 Z" transform="rotate(216)" fill="#e3e3e3" stroke="#b9b9b9" stroke-width="0.4"/><path d="M0 0 C -4.28 -2.72 -3.89 -7.39 0 -7.78 C 3.89 -7.39 4.28 -2.72 0 0 Z" transform="rotate(288)" fill="#e3e3e3" stroke="#b9b9b9" stroke-width="0.4"/><circle r="1.56" fill="#bdbdbd"/><circle cx="2.14" cy="1.56" r="0.54" fill="#9e9e9e"/><circle cx="-0.82" cy="2.52" r="0.54" fill="#9e9e9e"/><circle cx="-2.65" cy="0.00" r="0.54" fill="#9e9e9e"/><circle cx="-0.82" cy="-2.52" r="0.54" fill="#9e9e9e"/><circle cx="2.14" cy="-1.56" r="0.54" fill="#9e9e9e"/></g><ellipse cx="29.32" cy="20.18" rx="1.59" ry="2.47" transform="rotate(323.44 29.32 20.18)" fill="#e5e5e5" stroke="#bdbdbd" stroke-width="0.3"/><ellipse cx="17.39" cy="14.52" rx="1.38" ry="2.15" transform="rotate(84.02 17.39 14.52)" fill="#e5e5e5" stroke="#bdbdbd" stroke-width="0.3"/></g><g class="c c1" style="transform-origin:100px 0px"><path d="M100 0 Q 84.00 5.00 70.00 18.00" fill="none" stroke="#c4c4c4" stroke-width="1.1" stroke-linecap="round"/><path d="M0 0 Q 3.66 -2.19 7.32 0 Q 3.66 2.19 0 0 Z" transform="translate(84.02 9.30) rotate(141.94)" fill="#d3d3d3" stroke="#bdbdbd" stroke-width="0.3"/><path d="M0 0 Q 4.58 -2.75 9.16 0 Q 4.58 2.75 0 0 Z" transform="translate(83.28 5.99) rotate(197.60)" fill="#d3d3d3" stroke="#bdbdbd" stroke-width="0.3"/><path d="M0 0 Q 4.39 -2.63 8.78 0 Q 4.39 2.63 0 0 Z" transform="translate(78.06 16.32) rotate(167.44)" fill="#d3d3d3" stroke="#bdbdbd" stroke-width="0.3"/><path d="M0 0 Q 4.83 -2.90 9.65 0 Q 4.83 2.90 0 0 Z" transform="translate(78.93 11.42) rotate(180.76)" fill="#d3d3d3" stroke="#bdbdbd" stroke-width="0.3"/><g transform="translate(85.95 6.43) rotate(12.96)"><path d="M0 0 C -4.08 -2.60 -3.71 -7.05 0 -7.42 C 3.71 -7.05 4.08 -2.60 0 0 Z" transform="rotate(0)" fill="#ececec" stroke="#b9b9b9" stroke-width="0.4"/><path d="M0 0 C -4.08 -2.60 -3.71 -7.05 0 -7.42 C 3.71 -7.05 4.08 -2.60 0 0 Z" transform="rotate(72)" fill="#ececec" stroke="#b9b9b9" stroke-width="0.4"/><path d="M0 0 C -4.08 -2.60 -3.71 -7.05 0 -7.42 C 3.71 -7.05 4.08 -2.60 0 0 Z" transform="rotate(144)" fill="#ececec" stroke="#b9b9b9" stroke-width="0.4"/><path d="M0 0 C -4.08 -2.60 -3.71 -7.05 0 -7.42 C 3.71 -7.05 4.08 -2.60 0 0 Z" transform="rotate(216)" fill="#ececec" stroke="#b9b9b9" stroke-width="0.4"/><path d="M0 0 C -4.08 -2.60 -3.71 -7.05 0 -7.42 C 3.71 -7.05 4.08 -2.60 0 0 Z" transform="rotate(288)" fill="#ececec" stroke="#b9b9b9" stroke-width="0.4"/><circle r="1.48" fill="#bdbdbd"/><circle cx="2.04" cy="1.48" r="0.52" fill="#9e9e9e"/><circle cx="-0.78" cy="2.40" r="0.52" fill="#9e9e9e"/><circle cx="-2.52" cy="0.00" r="0.52" fill="#9e9e9e"/><circle cx="-0.78" cy="-2.40" r="0.52" fill="#9e9e9e"/><circle cx="2.04" cy="-1.48" r="0.52" fill="#9e9e9e"/></g><g transform="translate(95.33 13.41) rotate(32.43)"><path d="M0 0 C -4.42 -2.81 -4.02 -7.64 0 -8.04 C 4.02 -7.64 4.42 -2.81 0 0 Z" transform="rotate(0)" fill="#ececec" stroke="#b9b9b9" stroke-width="0.4"/><path d="M0 0 C -4.42 -2.81 -4.02 -7.64 0 -8.04 C 4.02 -7.64 4.42 -2.81 0 0 Z" transform="rotate(72)" fill="#ececec" stroke="#b9b9b9" stroke-width="0.4"/><path d="M0 0 C -4.42 -2.81 -4.02 -7.64 0 -8.04 C 4.02 -7.64 4.42 -2.81 0 0 Z" transform="rotate(144)" fill="#ececec" stroke="#b9b9b9" stroke-width="0.4"/><path d="M0 0 C -4.42 -2.81 -4.02 -7.64 0 -8.04 C 4.02 -7.64 4.42 -2.81 0 0 Z" transform="rotate(216)" fill="#ececec" stroke="#b9b9b9" stroke-width="0.4"/><path d="M0 0 C -4.42 -2.81 -4.02 -7.64 0 -8.04 C 4.02 -7.64 4.42 -2.81 0 0 Z" transform="rotate(288)" fill="#ececec" stroke="#b9b9b9" stroke-width="0.4"/><circle r="1.61" fill="#bdbdbd"/><circle cx="2.21" cy="1.61" r="0.56" fill="#9e9e9e"/><circle cx="-0.84" cy="2.60" r="0.56" fill="#9e9e9e"/><circle cx="-2.73" cy="0.00" r="0.56" fill="#9e9e9e"/><circle cx="-0.84" cy="-2.60" r="0.56" fill="#9e9e9e"/><circle cx="2.21" cy="-1.61" r="0.56" fill="#9e9e9e"/></g><g transform="translate(94.46 3.13) rotate(47.94)"><path d="M0 0 C -4.18 -2.66 -3.80 -7.21 0 -7.59 C 3.80 -7.21 4.18 -2.66 0 0 Z" transform="rotate(0)" fill="#e3e3e3" stroke="#b9b9b9" stroke-width="0.4"/><path d="M0 0 C -4.18 -2.66 -3.80 -7.21 0 -7.59 C 3.80 -7.21 4.18 -2.66 0 0 Z" transform="rotate(72)" fill="#e3e3e3" stroke="#b9b9b9" stroke-width="0.4"/><path d="M0 0 C -4.18 -2.66 -3.80 -7.21 0 -7.59 C 3.80 -7.21 4.18 -2.66 0 0 Z" transform="rotate(144)" fill="#e3e3e3" stroke="#b9b9b9" stroke-width="0.4"/><path d="M0 0 C -4.18 -2.66 -3.80 -7.21 0 -7.59 C 3.80 -7.21 4.18 -2.66 0 0 Z" transform="rotate(216)" fill="#e3e3e3" stroke="#b9b9b9" stroke-width="0.4"/><path d="M0 0 C -4.18 -2.66 -3.80 -7.21 0 -7.59 C 3.80 -7.21 4.18 -2.66 0 0 Z" transform="rotate(288)" fill="#e3e3e3" stroke="#b9b9b9" stroke-width="0.4"/><circle r="1.52" fill="#bdbdbd"/><circle cx="2.09" cy="1.52" r="0.53" fill="#9e9e9e"/><circle cx="-0.80" cy="2.46" r="0.53" fill="#9e9e9e"/><circle cx="-2.58" cy="0.00" r="0.53" fill="#9e9e9e"/><circle cx="-0.80" cy="-2.46" r="0.53" fill="#9e9e9e"/><circle cx="2.09" cy="-1.52" r="0.53" fill="#9e9e9e"/></g><g transform="translate(97.89 15.75) rotate(7.11)"><path d="M0 0 C -4.56 -2.90 -4.14 -7.87 0 -8.29 C 4.14 -7.87 4.56 -2.90 0 0 Z" transform="rotate(0)" fill="#e3e3e3" stroke="#b9b9b9" stroke-width="0.4"/><path d="M0 0 C -4.56 -2.90 -4.14 -7.87 0 -8.29 C 4.14 -7.87 4.56 -2.90 0 0 Z" transform="rotate(72)" fill="#e3e3e3" stroke="#b9b9b9" stroke-width="0.4"/><path d="M0 0 C -4.56 -2.90 -4.14 -7.87 0 -8.29 C 4.14 -7.87 4.56 -2.90 0 0 Z" transform="rotate(144)" fill="#e3e3e3" stroke="#b9b9b9" stroke-width="0.4"/><path d="M0 0 C -4.56 -2.90 -4.14 -7.87 0 -8.29 C 4.14 -7.87 4.56 -2.90 0 0 Z" transform="rotate(216)" fill="#e3e3e3" stroke="#b9b9b9" stroke-width="0.4"/><path d="M0 0 C -4.56 -2.90 -4.14 -7.87 0 -8.29 C 4.14 -7.87 4.56 -2.90 0 0 Z" transform="rotate(288)" fill="#e3e3e3" stroke="#b9b9b9" stroke-width="0.4"/><circle r="1.66" fill="#bdbdbd"/><circle cx="2.28" cy="1.66" r="0.58" fill="#9e9e9e"/><circle cx="-0.87" cy="2.68" r="0.58" fill="#9e9e9e"/><circle cx="-2.82" cy="0.00" r="0.58" fill="#9e9e9e"/><circle cx="-0.87" cy="-2.68" r="0.58" fill="#9e9e9e"/><circle cx="2.28" cy="-1.66" r="0.58" fill="#9e9e9e"/></g><g transform="translate(95.67 5.42) rotate(44.20)"><path d="M0 0 C -3.14 -2.00 -2.86 -5.43 0 -5.72 C 2.86 -5.43 3.14 -2.00 0 0 Z" transform="rotate(0)" fill="#e3e3e3" stroke="#b9b9b9" stroke-width="0.4"/><path d="M0 0 C -3.14 -2.00 -2.86 -5.43 0 -5.72 C 2.86 -5.43 3.14 -2.00 0 0 Z" transform="rotate(72)" fill="#e3e3e3" stroke="#b9b9b9" stroke-width="0.4"/><path d="M0 0 C -3.14 -2.00 -2.86 -5.43 0 -5.72 C 2.86 -5.43 3.14 -2.00 0 0 Z" transform="rotate(144)" fill="#e3e3e3" stroke="#b9b9b9" stroke-width="0.4"/><path d="M0 0 C -3.14 -2.00 -2.86 -5.43 0 -5.72 C 2.86 -5.43 3.14 -2.00 0 0 Z" transform="rotate(216)" fill="#e3e3e3" stroke="#b9b9b9" stroke-width="0.4"/><path d="M0 0 C -3.14 -2.00 -2.86 -5.43 0 -5.72 C 2.86 -5.43 3.14 -2.00 0 0 Z" transform="rotate(288)" fill="#e3e3e3" stroke="#b9b9b9" stroke-width="0.4"/><circle r="1.14" fill="#bdbdbd"/><circle cx="1.57" cy="1.14" r="0.40" fill="#9e9e9e"/><circle cx="-0.60" cy="1.85" r="0.40" fill="#9e9e9e"/><circle cx="-1.94" cy="0.00" r="0.40" fill="#9e9e9e"/><circle cx="-0.60" cy="-1.85" r="0.40" fill="#9e9e9e"/><circle cx="1.57" cy="-1.14" r="0.40" fill="#9e9e9e"/></g><g transform="translate(86.27 11.21) rotate(60.17)"><path d="M0 0 C -4.02 -2.56 -3.65 -6.94 0 -7.31 C 3.65 -6.94 4.02 -2.56 0 0 Z" transform="rotate(0)" fill="#ececec" stroke="#b9b9b9" stroke-width="0.4"/><path d="M0 0 C -4.02 -2.56 -3.65 -6.94 0 -7.31 C 3.65 -6.94 4.02 -2.56 0 0 Z" transform="rotate(72)" fill="#ececec" stroke="#b9b9b9" stroke-width="0.4"/><path d="M0 0 C -4.02 -2.56 -3.65 -6.94 0 -7.31 C 3.65 -6.94 4.02 -2.56 0 0 Z" transform="rotate(144)" fill="#ececec" stroke="#b9b9b9" stroke-width="0.4"/><path d="M0 0 C -4.02 -2.56 -3.65 -6.94 0 -7.31 C 3.65 -6.94 4.02 -2.56 0 0 Z" transform="rotate(216)" fill="#ececec" stroke="#b9b9b9" stroke-width="0.4"/><path d="M0 0 C -4.02 -2.56 -3.65 -6.94 0 -7.31 C 3.65 -6.94 4.02 -2.56 0 0 Z" transform="rotate(288)" fill="#ececec" stroke="#b9b9b9" stroke-width="0.4"/><circle r="1.46" fill="#bdbdbd"/><circle cx="2.01" cy="1.46" r="0.51" fill="#9e9e9e"/><circle cx="-0.77" cy="2.36" r="0.51" fill="#9e9e9e"/><circle cx="-2.48" cy="0.00" r="0.51" fill="#9e9e9e"/><circle cx="-0.77" cy="-2.36" r="0.51" fill="#9e9e9e"/><circle cx="2.01" cy="-1.46" r="0.51" fill="#9e9e9e"/></g><g transform="translate(89.16 14.37) rotate(10.43)"><path d="M0 0 C -3.28 -2.09 -2.98 -5.66 0 -5.96 C 2.98 -5.66 3.28 -2.09 0 0 Z" transform="rotate(0)" fill="#ececec" stroke="#b9b9b9" stroke-width="0.4"/><path d="M0 0 C -3.28 -2.09 -2.98 -5.66 0 -5.96 C 2.98 -5.66 3.28 -2.09 0 0 Z" transform="rotate(72)" fill="#ececec" stroke="#b9b9b9" stroke-width="0.4"/><path d="M0 0 C -3.28 -2.09 -2.98 -5.66 0 -5.96 C 2.98 -5.66 3.28 -2.09 0 0 Z" transform="rotate(144)" fill="#ececec" stroke="#b9b9b9" stroke-width="0.4"/><path d="M0 0 C -3.28 -2.09 -2.98 -5.66 0 -5.96 C 2.98 -5.66 3.28 -2.09 0 0 Z" transform="rotate(216)" fill="#ececec" stroke="#b9b9b9" stroke-width="0.4"/><path d="M0 0 C -3.28 -2.09 -2.98 -5.66 0 -5.96 C 2.98 -5.66 3.28 -2.09 0 0 Z" transform="rotate(288)" fill="#ececec" stroke="#b9b9b9" stroke-width="0.4"/><circle r="1.19" fill="#bdbdbd"/><circle cx="1.64" cy="1.19" r="0.42" fill="#9e9e9e"/><circle cx="-0.63" cy="1.93" r="0.42" fill="#9e9e9e"/><circle cx="-2.03" cy="0.00" r="0.42" fill="#9e9e9e"/><circle cx="-0.63" cy="-1.93" r="0.42" fill="#9e9e9e"/><circle cx="1.64" cy="-1.19" r="0.42" fill="#9e9e9e"/></g><ellipse cx="82.65" cy="26.58" rx="1.39" ry="2.16" transform="rotate(215.37 82.65 26.58)" fill="#e5e5e5" stroke="#bdbdbd" stroke-width="0.3"/><ellipse cx="74.78" cy="29.84" rx="1.18" ry="1.83" transform="rotate(224.51 74.78 29.84)" fill="#e5e5e5" stroke="#bdbdbd" stroke-width="0.3"/></g><g class="c c2" style="transform-origin:100px 100px"><path d="M100 100 Q 84.00 95.00 70.00 82.00" fill="none" stroke="#c4c4c4" stroke-width="1.1" stroke-linecap="round"/><path d="M0 0 Q 5.33 -3.20 10.66 0 Q 5.33 3.20 0 0 Z" transform="translate(82.75 89.87) rotate(171.89)" fill="#d3d3d3" stroke="#bdbdbd" stroke-width="0.3"/><path d="M0 0 Q 4.44 -2.67 8.89 0 Q 4.44 2.67 0 0 Z" transform="translate(89.22 84.54) rotate(123.24)" fill="#d3d3d3" stroke="#bdbdbd" stroke-width="0.3"/><path d="M0 0 Q 4.28 -2.57 8.55 0 Q 4.28 2.57 0 0 Z" transform="translate(80.34 92.61) rotate(172.93)" fill="#d3d3d3" stroke="#bdbdbd" stroke-width="0.3"/><path d="M0 0 Q 5.22 -3.13 10.43 0 Q 5.22 3.13 0 0 Z" transform="translate(89.45 87.21) rotate(237.95)" fill="#d3d3d3" stroke="#bdbdbd" stroke-width="0.3"/><g transform="translate(89.02 96.11) rotate(35.25)"><path d="M0 0 C -3.46 -2.20 -3.15 -5.98 0 -6.29 C 3.15 -5.98 3.46 -2.20 0 0 Z" transform="rotate(0)" fill="#ececec" stroke="#b9b9b9" stroke-width="0.4"/><path d="M0 0 C -3.46 -2.20 -3.15 -5.98 0 -6.29 C 3.15 -5.98 3.46 -2.20 0 0 Z" transform="rotate(72)" fill="#ececec" stroke="#b9b9b9" stroke-width="0.4"/><path d="M0 0 C -3.46 -2.20 -3.15 -5.98 0 -6.29 C 3.15 -5.98 3.46 -2.20 0 0 Z" transform="rotate(144)" fill="#ececec" stroke="#b9b9b9" stroke-width="0.4"/><path d="M0 0 C -3.46 -2.20 -3.15 -5.98 0 -6.29 C 3.15 -5.98 3.46 -2.20 0 0 Z" transform="rotate(216)" fill="#ececec" stroke="#b9b9b9" stroke-width="0.4"/><path d="M0 0 C -3.46 -2.20 -3.15 -5.98 0 -6.29 C 3.15 -5.98 3.46 -2.20 0 0 Z" transform="rotate(288)" fill="#ececec" stroke="#b9b9b9" stroke-width="0.4"/><circle r="1.26" fill="#bdbdbd"/><circle cx="1.73" cy="1.26" r="0.44" fill="#9e9e9e"/><circle cx="-0.66" cy="2.04" r="0.44" fill="#9e9e9e"/><circle cx="-2.14" cy="0.00" r="0.44" fill="#9e9e9e"/><circle cx="-0.66" cy="-2.04" r="0.44" fill="#9e9e9e"/><circle cx="1.73" cy="-1.26" r="0.44" fill="#9e9e9e"/></g><g transform="translate(90.32 94.31) rotate(22.39)"><path d="M0 0 C -3.75 -2.39 -3.41 -6.48 0 -6.82 C 3.41 -6.48 3.75 -2.39 0 0 Z" transform="rotate(0)" fill="#e3e3e3" stroke="#b9b9b9" stroke-width="0.4"/><path d="M0 0 C -3.75 -2.39 -3.41 -6.48 0 -6.82 C 3.41 -6.48 3.75 -2.39 0 0 Z" transform="rotate(72)" fill="#e3e3e3" stroke="#b9b9b9" stroke-width="0.4"/><path d="M0 0 C -3.75 -2.39 -3.41 -6.48 0 -6.82 C 3.41 -6.48 3.75 -2.39 0 0 Z" transform="rotate(144)" fill="#e3e3e3" stroke="#b9b9b9" stroke-width="0.4"/><path d="M0 0 C -3.75 -2.39 -3.41 -6.48 0 -6.82 C 3.41 -6.48 3.75 -2.39 0 0 Z" transform="rotate(216)" fill="#e3e3e3" stroke="#b9b9b9" stroke-width="0.4"/><path d="M0 0 C -3.75 -2.39 -3.41 -6.48 0 -6.82 C 3.41 -6.48 3.75 -2.39 0 0 Z" transform="rotate(288)" fill="#e3e3e3" stroke="#b9b9b9" stroke-width="0.4"/><circle r="1.36" fill="#bdbdbd"/><circle cx="1.88" cy="1.36" r="0.48" fill="#9e9e9e"/><circle cx="-0.72" cy="2.20" r="0.48" fill="#9e9e9e"/><circle cx="-2.32" cy="0.00" r="0.48" fill="#9e9e9e"/><circle cx="-0.72" cy="-2.20" r="0.48" fill="#9e9e9e"/><circle cx="1.88" cy="-1.36" r="0.48" fill="#9e9e9e"/></g><g transform="translate(97.88 97.93) rotate(48.88)"><path d="M0 0 C -4.25 -2.71 -3.86 -7.34 0 -7.73 C 3.86 -7.34 4.25 -2.71 0 0 Z" transform="rotate(0)" fill="#ececec" stroke="#b9b9b9" stroke-width="0.4"/><path d="M0 0 C -4.25 -2.71 -3.86 -7.34 0 -7.73 C 3.86 -7.34 4.25 -2.71 0 0 Z" transform="rotate(72)" fill="#ececec" stroke="#b9b9b9" stroke-width="0.4"/><path d="M0 0 C -4.25 -2.71 -3.86 -7.34 0 -7.73 C 3.86 -7.34 4.25 -2.71 0 0 Z" transform="rotate(144)" fill="#ececec" stroke="#b9b9b9" stroke-width="0.4"/><path d="M0 0 C -4.25 -2.71 -3.86 -7.34 0 -7.73 C 3.86 -7.34 4.25 -2.71 0 0 Z" transform="rotate(216)" fill="#ececec" stroke="#b9b9b9" stroke-width="0.4"/><path d="M0 0 C -4.25 -2.71 -3.86 -7.34 0 -7.73 C 3.86 -7.34 4.25 -2.71 0 0 Z" transform="rotate(288)" fill="#ececec" stroke="#b9b9b9" stroke-width="0.4"/><circle r="1.55" fill="#bdbdbd"/><circle cx="2.13" cy="1.54" r="0.54" fill="#9e9e9e"/><circle cx="-0.81" cy="2.50" r="0.54" fill="#9e9e9e"/><circle cx="-2.63" cy="0.00" r="0.54" fill="#9e9e9e"/><circle cx="-0.81" cy="-2.50" r="0.54" fill="#9e9e9e"/><circle cx="2.13" cy="-1.54" r="0.54" fill="#9e9e9e"/></g><g transform="translate(96.01 97.10) rotate(12.69)"><path d="M0 0 C -3.30 -2.10 -3.00 -5.71 0 -6.01 C 3.00 -5.71 3.30 -2.10 0 0 Z" transform="rotate(0)" fill="#e3e3e3" stroke="#b9b9b9" stroke-width="0.4"/><path d="M0 0 C -3.30 -2.10 -3.00 -5.71 0 -6.01 C 3.00 -5.71 3.30 -2.10 0 0 Z" transform="rotate(72)" fill="#e3e3e3" stroke="#b9b9b9" stroke-width="0.4"/><path d="M0 0 C -3.30 -2.10 -3.00 -5.71 0 -6.01 C 3.00 -5.71 3.30 -2.10 0 0 Z" transform="rotate(144)" fill="#e3e3e3" stroke="#b9b9b9" stroke-width="0.4"/><path d="M0 0 C -3.30 -2.10 -3.00 -5.71 0 -6.01 C 3.00 -5.71 3.30 -2.10 0 0 Z" transform="rotate(216)" fill="#e3e3e3" stroke="#b9b9b9" stroke-width="0.4"/><path d="M0 0 C -3.30 -2.10 -3.00 -5.71 0 -6.01 C 3.00 -5.71 3.30 -2.10 0 0 Z" transform="rotate(288)" fill="#e3e3e3" stroke="#b9b9b9" stroke-width="0.4"/><circle r="1.20" fill="#bdbdbd"/><circle cx="1.65" cy="1.20" r="0.42" fill="#9e9e9e"/><circle cx="-0.63" cy="1.94" r="0.42" fill="#9e9e9e"/><circle cx="-2.04" cy="0.00" r="0.42" fill="#9e9e9e"/><circle cx="-0.63" cy="-1.94" r="0.42" fill="#9e9e9e"/><circle cx="1.65" cy="-1.20" r="0.42" fill="#9e9e9e"/></g><g transform="translate(96.91 94.68) rotate(47.77)"><path d="M0 0 C -4.30 -2.74 -3.91 -7.43 0 -7.82 C 3.91 -7.43 4.30 -2.74 0 0 Z" transform="rotate(0)" fill="#ececec" stroke="#b9b9b9" stroke-width="0.4"/><path d="M0 0 C -4.30 -2.74 -3.91 -7.43 0 -7.82 C 3.91 -7.43 4.30 -2.74 0 0 Z" transform="rotate(72)" fill="#ececec" stroke="#b9b9b9" stroke-width="0.4"/><path d="M0 0 C -4.30 -2.74 -3.91 -7.43 0 -7.82 C 3.91 -7.43 4.30 -2.74 0 0 Z" transform="rotate(144)" fill="#ececec" stroke="#b9b9b9" stroke-width="0.4"/><path d="M0 0 C -4.30 -2.74 -3.91 -7.43 0 -7.82 C 3.91 -7.43 4.30 -2.74 0 0 Z" transform="rotate(216)" fill="#ececec" stroke="#b9b9b9" stroke-width="0.4"/><path d="M0 0 C -4.30 -2.74 -3.91 -7.43 0 -7.82 C 3.91 -7.43 4.30 -2.74 0 0 Z" transform="rotate(288)" fill="#ececec" stroke="#b9b9b9" stroke-width="0.4"/><circle r="1.56" fill="#bdbdbd"/><circle cx="2.15" cy="1.56" r="0.55" fill="#9e9e9e"/><circle cx="-0.82" cy="2.53" r="0.55" fill="#9e9e9e"/><circle cx="-2.66" cy="0.00" r="0.55" fill="#9e9e9e"/><circle cx="-0.82" cy="-2.53" r="0.55" fill="#9e9e9e"/><circle cx="2.15" cy="-1.56" r="0.55" fill="#9e9e9e"/></g><g transform="translate(84.69 79.99) rotate(16.60)"><path d="M0 0 C -2.95 -1.88 -2.68 -5.10 0 -5.37 C 2.68 -5.10 2.95 -1.88 0 0 Z" transform="rotate(0)" fill="#ececec" stroke="#b9b9b9" stroke-width="0.4"/><path d="M0 0 C -2.95 -1.88 -2.68 -5.10 0 -5.37 C 2.68 -5.10 2.95 -1.88 0 0 Z" transform="rotate(72)" fill="#ececec" stroke="#b9b9b9" stroke-width="0.4"/><path d="M0 0 C -2.95 -1.88 -2.68 -5.10 0 -5.37 C 2.68 -5.10 2.95 -1.88 0 0 Z" transform="rotate(144)" fill="#ececec" stroke="#b9b9b9" stroke-width="0.4"/><path d="M0 0 C -2.95 -1.88 -2.68 -5.10 0 -5.37 C 2.68 -5.10 2.95 -1.88 0 0 Z" transform="rotate(216)" fill="#ececec" stroke="#b9b9b9" stroke-width="0.4"/><path d="M0 0 C -2.95 -1.88 -2.68 -5.10 0 -5.37 C 2.68 -5.10 2.95 -1.88 0 0 Z" transform="rotate(288)" fill="#ececec" stroke="#b9b9b9" stroke-width="0.4"/><circle r="1.07" fill="#bdbdbd"/><circle cx="1.48" cy="1.07" r="0.38" fill="#9e9e9e"/><circle cx="-0.56" cy="1.73" r="0.38" fill="#9e9e9e"/><circle cx="-1.82" cy="0.00" r="0.38" fill="#9e9e9e"/><circle cx="-0.56" cy="-1.73" r="0.38" fill="#9e9e9e"/><circle cx="1.48" cy="-1.07" r="0.38" fill="#9e9e9e"/></g><g transform="translate(94.53 85.37) rotate(8.28)"><path d="M0 0 C -3.01 -1.91 -2.74 -5.20 0 -5.47 C 2.74 -5.20 3.01 -1.91 0 0 Z" transform="rotate(0)" fill="#e3e3e3" stroke="#b9b9b9" stroke-width="0.4"/><path d="M0 0 C -3.01 -1.91 -2.74 -5.20 0 -5.47 C 2.74 -5.20 3.01 -1.91 0 0 Z" transform="rotate(72)" fill="#e3e3e3" stroke="#b9b9b9" stroke-width="0.4"/><path d="M0 0 C -3.01 -1.91 -2.74 -5.20 0 -5.47 C 2.74 -5.20 3.01 -1.91 0 0 Z" transform="rotate(144)" fill="#e3e3e3" stroke="#b9b9b9" stroke-width="0.4"/><path d="M0 0 C -3.01 -1.91 -2.74 -5.20 0 -5.47 C 2.74 -5.20 3.01 -1.91 0 0 Z" transform="rotate(216)" fill="#e3e3e3" stroke="#b9b9b9" stroke-width="0.4"/><path d="M0 0 C -3.01 -1.91 -2.74 -5.20 0 -5.47 C 2.74 -5.20 3.01 -1.91 0 0 Z" transform="rotate(288)" fill="#e3e3e3" stroke="#b9b9b9" stroke-width="0.4"/><circle r="1.09" fill="#bdbdbd"/><circle cx="1.50" cy="1.09" r="0.38" fill="#9e9e9e"/><circle cx="-0.57" cy="1.77" r="0.38" fill="#9e9e9e"/><circle cx="-1.86" cy="0.00" r="0.38" fill="#9e9e9e"/><circle cx="-0.57" cy="-1.77" r="0.38" fill="#9e9e9e"/><circle cx="1.50" cy="-1.09" r="0.38" fill="#9e9e9e"/></g><g transform="translate(93.11 92.67) rotate(13.01)"><path d="M0 0 C -3.92 -2.50 -3.57 -6.78 0 -7.13 C 3.57 -6.78 3.92 -2.50 0 0 Z" transform="rotate(0)" fill="#e3e3e3" stroke="#b9b9b9" stroke-width="0.4"/><path d="M0 0 C -3.92 -2.50 -3.57 -6.78 0 -7.13 C 3.57 -6.78 3.92 -2.50 0 0 Z" transform="rotate(72)" fill="#e3e3e3" stroke="#b9b9b9" stroke-width="0.4"/><path d="M0 0 C -3.92 -2.50 -3.57 -6.78 0 -7.13 C 3.57 -6.78 3.92 -2.50 0 0 Z" transform="rotate(144)" fill="#e3e3e3" stroke="#b9b9b9" stroke-width="0.4"/><path d="M0 0 C -3.92 -2.50 -3.57 -6.78 0 -7.13 C 3.57 -6.78 3.92 -2.50 0 0 Z" transform="rotate(216)" fill="#e3e3e3" stroke="#b9b9b9" stroke-width="0.4"/><path d="M0 0 C -3.92 -2.50 -3.57 -6.78 0 -7.13 C 3.57 -6.78 3.92 -2.50 0 0 Z" transform="rotate(288)" fill="#e3e3e3" stroke="#b9b9b9" stroke-width="0.4"/><circle r="1.43" fill="#bdbdbd"/><circle cx="1.96" cy="1.43" r="0.50" fill="#9e9e9e"/><circle cx="-0.75" cy="2.31" r="0.50" fill="#9e9e9e"/><circle cx="-2.43" cy="0.00" r="0.50" fill="#9e9e9e"/><circle cx="-0.75" cy="-2.31" r="0.50" fill="#9e9e9e"/><circle cx="1.96" cy="-1.43" r="0.50" fill="#9e9e9e"/></g><ellipse cx="73.07" cy="79.72" rx="1.46" ry="2.27" transform="rotate(103.70 73.07 79.72)" fill="#e5e5e5" stroke="#bdbdbd" stroke-width="0.3"/><ellipse cx="83.00" cy="84.11" rx="1.19" ry="1.85" transform="rotate(35.20 83.00 84.11)" fill="#e5e5e5" stroke="#bdbdbd" stroke-width="0.3"/></g><g class="c c3" style="transform-origin:0px 100px"><path d="M0 100 Q 16.00 95.00 30.00 82.00" fill="none" stroke="#c4c4c4" stroke-width="1.1" stroke-linecap="round"/><path d="M0 0 Q 4.06 -2.44 8.12 0 Q 4.06 2.44 0 0 Z" transform="translate(10.33 95.01) rotate(-13.79)" fill="#d3d3d3" stroke="#bdbdbd" stroke-width="0.3"/><path d="M0 0 Q 3.73 -2.24 7.47 0 Q 3.73 2.24 0 0 Z" transform="translate(21.84 82.88) rotate(-38.36)" fill="#d3d3d3" stroke="#bdbdbd" stroke-width="0.3"/><path d="M0 0 Q 3.98 -2.39 7.97 0 Q 3.98 2.39 0 0 Z" transform="translate(12.02 85.53) rotate(6.43)" fill="#d3d3d3" stroke="#bdbdbd" stroke-width="0.3"/><path d="M0 0 Q 5.11 -3.06 10.21 0 Q 5.11 3.06 0 0 Z" transform="translate(14.46 90.99) rotate(-40.78)" fill="#d3d3d3" stroke="#bdbdbd" stroke-width="0.3"/><g transform="translate(3.30 79.99) rotate(14.46)"><path d="M0 0 C -3.36 -2.14 -3.05 -5.80 0 -6.10 C 3.05 -5.80 3.36 -2.14 0 0 Z" transform="rotate(0)" fill="#ececec" stroke="#b9b9b9" stroke-width="0.4"/><path d="M0 0 C -3.36 -2.14 -3.05 -5.80 0 -6.10 C 3.05 -5.80 3.36 -2.14 0 0 Z" transform="rotate(72)" fill="#ececec" stroke="#b9b9b9" stroke-width="0.4"/><path d="M0 0 C -3.36 -2.14 -3.05 -5.80 0 -6.10 C 3.05 -5.80 3.36 -2.14 0 0 Z" transform="rotate(144)" fill="#ececec" stroke="#b9b9b9" stroke-width="0.4"/><path d="M0 0 C -3.36 -2.14 -3.05 -5.80 0 -6.10 C 3.05 -5.80 3.36 -2.14 0 0 Z" transform="rotate(216)" fill="#ececec" stroke="#b9b9b9" stroke-width="0.4"/><path d="M0 0 C -3.36 -2.14 -3.05 -5.80 0 -6.10 C 3.05 -5.80 3.36 -2.14 0 0 Z" transform="rotate(288)" fill="#ececec" stroke="#b9b9b9" stroke-width="0.4"/><circle r="1.22" fill="#bdbdbd"/><circle cx="1.68" cy="1.22" r="0.43" fill="#9e9e9e"/><circle cx="-0.64" cy="1.97" r="0.43" fill="#9e9e9e"/><circle cx="-2.08" cy="0.00" r="0.43" fill="#9e9e9e"/><circle cx="-0.64" cy="-1.97" r="0.43" fill="#9e9e9e"/><circle cx="1.68" cy="-1.22" r="0.43" fill="#9e9e9e"/></g><g transform="translate(15.81 79.62) rotate(43.48)"><path d="M0 0 C -3.86 -2.45 -3.51 -6.66 0 -7.01 C 3.51 -6.66 3.86 -2.45 0 0 Z" transform="rotate(0)" fill="#e3e3e3" stroke="#b9b9b9" stroke-width="0.4"/><path d="M0 0 C -3.86 -2.45 -3.51 -6.66 0 -7.01 C 3.51 -6.66 3.86 -2.45 0 0 Z" transform="rotate(72)" fill="#e3e3e3" stroke="#b9b9b9" stroke-width="0.4"/><path d="M0 0 C -3.86 -2.45 -3.51 -6.66 0 -7.01 C 3.51 -6.66 3.86 -2.45 0 0 Z" transform="rotate(144)" fill="#e3e3e3" stroke="#b9b9b9" stroke-width="0.4"/><path d="M0 0 C -3.86 -2.45 -3.51 -6.66 0 -7.01 C 3.51 -6.66 3.86 -2.45 0 0 Z" transform="rotate(216)" fill="#e3e3e3" stroke="#b9b9b9" stroke-width="0.4"/><path d="M0 0 C -3.86 -2.45 -3.51 -6.66 0 -7.01 C 3.51 -6.66 3.86 -2.45 0 0 Z" transform="rotate(288)" fill="#e3e3e3" stroke="#b9b9b9" stroke-width="0.4"/><circle r="1.40" fill="#bdbdbd"/><circle cx="1.93" cy="1.40" r="0.49" fill="#9e9e9e"/><circle cx="-0.74" cy="2.27" r="0.49" fill="#9e9e9e"/><circle cx="-2.38" cy="0.00" r="0.49" fill="#9e9e9e"/><circle cx="-0.74" cy="-2.27" r="0.49" fill="#9e9e9e"/><circle cx="1.93" cy="-1.40" r="0.49" fill="#9e9e9e"/></g><g transform="translate(3.77 81.72) rotate(13.71)"><path d="M0 0 C -3.99 -2.54 -3.63 -6.90 0 -7.26 C 3.63 -6.90 3.99 -2.54 0 0 Z" transform="rotate(0)" fill="#e3e3e3" stroke="#b9b9b9" stroke-width="0.4"/><path d="M0 0 C -3.99 -2.54 -3.63 -6.90 0 -7.26 C 3.63 -6.90 3.99 -2.54 0 0 Z" transform="rotate(72)" fill="#e3e3e3" stroke="#b9b9b9" stroke-width="0.4"/><path d="M0 0 C -3.99 -2.54 -3.63 -6.90 0 -7.26 C 3.63 -6.90 3.99 -2.54 0 0 Z" transform="rotate(144)" fill="#e3e3e3" stroke="#b9b9b9" stroke-width="0.4"/><path d="M0 0 C -3.99 -2.54 -3.63 -6.90 0 -7.26 C 3.63 -6.90 3.99 -2.54 0 0 Z" transform="rotate(216)" fill="#e3e3e3" stroke="#b9b9b9" stroke-width="0.4"/><path d="M0 0 C -3.99 -2.54 -3.63 -6.90 0 -7.26 C 3.63 -6.90 3.99 -2.54 0 0 Z" transform="rotate(288)" fill="#e3e3e3" stroke="#b9b9b9" stroke-width="0.4"/><circle r="1.45" fill="#bdbdbd"/><circle cx="2.00" cy="1.45" r="0.51" fill="#9e9e9e"/><circle cx="-0.76" cy="2.35" r="0.51" fill="#9e9e9e"/><circle cx="-2.47" cy="0.00" r="0.51" fill="#9e9e9e"/><circle cx="-0.76" cy="-2.35" r="0.51" fill="#9e9e9e"/><circle cx="2.00" cy="-1.45" r="0.51" fill="#9e9e9e"/></g><g transform="translate(17.68 78.57) rotate(31.74)"><path d="M0 0 C -4.20 -2.67 -3.81 -7.25 0 -7.63 C 3.81 -7.25 4.20 -2.67 0 0 Z" transform="rotate(0)" fill="#ececec" stroke="#b9b9b9" stroke-width="0.4"/><path d="M0 0 C -4.20 -2.67 -3.81 -7.25 0 -7.63 C 3.81 -7.25 4.20 -2.67 0 0 Z" transform="rotate(72)" fill="#ececec" stroke="#b9b9b9" stroke-width="0.4"/><path d="M0 0 C -4.20 -2.67 -3.81 -7.25 0 -7.63 C 3.81 -7.25 4.20 -2.67 0 0 Z" transform="rotate(144)" fill="#ececec" stroke="#b9b9b9" stroke-width="0.4"/><path d="M0 0 C -4.20 -2.67 -3.81 -7.25 0 -7.63 C 3.81 -7.25 4.20 -2.67 0 0 Z" transform="rotate(216)" fill="#ececec" stroke="#b9b9b9" stroke-width="0.4"/><path d="M0 0 C -4.20 -2.67 -3.81 -7.25 0 -7.63 C 3.81 -7.25 4.20 -2.67 0 0 Z" transform="rotate(288)" fill="#ececec" stroke="#b9b9b9" stroke-width="0.4"/><circle r="1.53" fill="#bdbdbd"/><circle cx="2.10" cy="1.52" r="0.53" fill="#9e9e9e"/><circle cx="-0.80" cy="2.47" r="0.53" fill="#9e9e9e"/><circle cx="-2.59" cy="0.00" r="0.53" fill="#9e9e9e"/><circle cx="-0.80" cy="-2.47" r="0.53" fill="#9e9e9e"/><circle cx="2.10" cy="-1.52" r="0.53" fill="#9e9e9e"/></g><g transform="translate(6.55 89.86) rotate(70.15)"><path d="M0 0 C -2.83 -1.80 -2.58 -4.90 0 -5.15 C 2.58 -4.90 2.83 -1.80 0 0 Z" transform="rotate(0)" fill="#e3e3e3" stroke="#b9b9b9" stroke-width="0.4"/><path d="M0 0 C -2.83 -1.80 -2.58 -4.90 0 -5.15 C 2.58 -4.90 2.83 -1.80 0 0 Z" transform="rotate(72)" fill="#e3e3e3" stroke="#b9b9b9" stroke-width="0.4"/><path d="M0 0 C -2.83 -1.80 -2.58 -4.90 0 -5.15 C 2.58 -4.90 2.83 -1.80 0 0 Z" transform="rotate(144)" fill="#e3e3e3" stroke="#b9b9b9" stroke-width="0.4"/><path d="M0 0 C -2.83 -1.80 -2.58 -4.90 0 -5.15 C 2.58 -4.90 2.83 -1.80 0 0 Z" transform="rotate(216)" fill="#e3e3e3" stroke="#b9b9b9" stroke-width="0.4"/><path d="M0 0 C -2.83 -1.80 -2.58 -4.90 0 -5.15 C 2.58 -4.90 2.83 -1.80 0 0 Z" transform="rotate(288)" fill="#e3e3e3" stroke="#b9b9b9" stroke-width="0.4"/><circle r="1.03" fill="#bdbdbd"/><circle cx="1.42" cy="1.03" r="0.36" fill="#9e9e9e"/><circle cx="-0.54" cy="1.67" r="0.36" fill="#9e9e9e"/><circle cx="-1.75" cy="0.00" r="0.36" fill="#9e9e9e"/><circle cx="-0.54" cy="-1.67" r="0.36" fill="#9e9e9e"/><circle cx="1.42" cy="-1.03" r="0.36" fill="#9e9e9e"/></g><g transform="translate(4.67 94.48) rotate(28.84)"><path d="M0 0 C -3.35 -2.13 -3.05 -5.79 0 -6.10 C 3.05 -5.79 3.35 -2.13 0 0 Z" transform="rotate(0)" fill="#ececec" stroke="#b9b9b9" stroke-width="0.4"/><path d="M0 0 C -3.35 -2.13 -3.05 -5.79 0 -6.10 C 3.05 -5.79 3.35 -2.13 0 0 Z" transform="rotate(72)" fill="#ececec" stroke="#b9b9b9" stroke-width="0.4"/><path d="M0 0 C -3.35 -2.13 -3.05 -5.79 0 -6.10 C 3.05 -5.79 3.35 -2.13 0 0 Z" transform="rotate(144)" fill="#ececec" stroke="#b9b9b9" stroke-width="0.4"/><path d="M0 0 C -3.35 -2.13 -3.05 -5.79 0 -6.10 C 3.05 -5.79 3.35 -2.13 0 0 Z" transform="rotate(216)" fill="#ececec" stroke="#b9b9b9" stroke-width="0.4"/><path d="M0 0 C -3.35 -2.13 -3.05 -5.79 0 -6.10 C 3.05 -5.79 3.35 -2.13 0 0 Z" transform="rotate(288)" fill="#ececec" stroke="#b9b9b9" stroke-width="0.4"/><circle r="1.22" fill="#bdbdbd"/><circle cx="1.68" cy="1.22" r="0.43" fill="#9e9e9e"/><circle cx="-0.64" cy="1.97" r="0.43" fill="#9e9e9e"/><circle cx="-2.07" cy="0.00" r="0.43" fill="#9e9e9e"/><circle cx="-0.64" cy="-1.97" r="0.43" fill="#9e9e9e"/><circle cx="1.68" cy="-1.22" r="0.43" fill="#9e9e9e"/></g><g transform="translate(3.13 94.58) rotate(57.09)"><path d="M0 0 C -3.00 -1.91 -2.72 -5.18 0 -5.45 C 2.72 -5.18 3.00 -1.91 0 0 Z" transform="rotate(0)" fill="#ececec" stroke="#b9b9b9" stroke-width="0.4"/><path d="M0 0 C -3.00 -1.91 -2.72 -5.18 0 -5.45 C 2.72 -5.18 3.00 -1.91 0 0 Z" transform="rotate(72)" fill="#ececec" stroke="#b9b9b9" stroke-width="0.4"/><path d="M0 0 C -3.00 -1.91 -2.72 -5.18 0 -5.45 C 2.72 -5.18 3.00 -1.91 0 0 Z" transform="rotate(144)" fill="#ececec" stroke="#b9b9b9" stroke-width="0.4"/><path d="M0 0 C -3.00 -1.91 -2.72 -5.18 0 -5.45 C 2.72 -5.18 3.00 -1.91 0 0 Z" transform="rotate(216)" fill="#ececec" stroke="#b9b9b9" stroke-width="0.4"/><path d="M0 0 C -3.00 -1.91 -2.72 -5.18 0 -5.45 C 2.72 -5.18 3.00 -1.91 0 0 Z" transform="rotate(288)" fill="#ececec" stroke="#b9b9b9" stroke-width="0.4"/><circle r="1.09" fill="#bdbdbd"/><circle cx="1.50" cy="1.09" r="0.38" fill="#9e9e9e"/><circle cx="-0.57" cy="1.76" r="0.38" fill="#9e9e9e"/><circle cx="-1.85" cy="0.00" r="0.38" fill="#9e9e9e"/><circle cx="-0.57" cy="-1.76" r="0.38" fill="#9e9e9e"/><circle cx="1.50" cy="-1.09" r="0.38" fill="#9e9e9e"/></g><ellipse cx="28.12" cy="83.45" rx="1.19" ry="1.86" transform="rotate(325.53 28.12 83.45)" fill="#e5e5e5" stroke="#bdbdbd" stroke-width="0.3"/><ellipse cx="28.92" cy="87.74" rx="1.55" ry="2.41" transform="rotate(227.50 28.92 87.74)" fill="#e5e5e5" stroke="#bdbdbd" stroke-width="0.3"/></g>
  </g>
</svg>
